<svg id="Layer_1" data-name="Layer 1" xmlns="http://www.w3.org/2000/svg" viewBox="0 0 1024 1024"><defs><style>.cls-1{fill:#ced6ff;}.cls-2{fill:#5d78ff;}</style></defs><title>Artboard 1</title><path class="cls-1" d="M533.57,307.12a182.66,182.66,0,0,1,8.12-53.92H348.9A117.27,117.27,0,0,0,231.63,370.47V675.1A117.27,117.27,0,0,0,348.9,792.37H653.53A117.27,117.27,0,0,0,770.8,675.1V482.32a182.66,182.66,0,0,1-53.92,8.12C615.8,490.43,533.57,408.2,533.57,307.12Z"/><path class="cls-2" d="M716.88,231.63a75.48,75.48,0,1,0,75.48,75.48A75.24,75.24,0,0,0,716.88,231.63Z"/></svg>