<svg id="Layer_1" data-name="Layer 1" xmlns="http://www.w3.org/2000/svg" viewBox="0 0 1024 1024"><defs><style>.cls-1{fill:#ced6ff;}.cls-2{fill:#5d78ff;}</style></defs><title>Artboard 1</title><path class="cls-1" d="M318.24,550.4a32,32,0,0,0-45.07.43l-.43.22a.75.75,0,0,1,.22-.43C285.67,537.9,306.16,538.11,318.24,550.4Z"/><path class="cls-1" d="M832.18,458.53c-21.14,139.54-130,245-270.23,261.82-1.29.21-2.59.21-3.88.43v45.08h32.35a32.31,32.31,0,0,1,32.35,32.35A29.89,29.89,0,0,1,620.82,809h23.51a32.35,32.35,0,1,1,0,64.7H407.1a32.35,32.35,0,0,1,0-64.7h23.72a30,30,0,0,1-2.16-10.78A32.44,32.44,0,0,1,461,765.86h32.35V721.21a310,310,0,0,1-199.71-99.42L243.4,672a32.53,32.53,0,0,1-22.86,9.49,32.35,32.35,0,0,1-22.86-55.21l74.62-74.84.43-.43.43-.22a32,32,0,0,1,45.07-.43c.22.21.43.21.65.43s.22.43.65.86a28,28,0,0,1,3.88,5C369.14,618.56,442.9,658.89,525.71,658a265.33,265.33,0,0,0,36.66-3c104.81-16.18,189.57-100.93,205.75-205.75,15.31-98.78-28.47-188.93-101.15-240.9-16-11.43-17-34.72-3.24-48.53a32.43,32.43,0,0,1,41.84-3.45C796.38,221.73,850.94,334.52,832.18,458.53Z"/><path class="cls-1" d="M323.42,556.66a28,28,0,0,0-3.88-5,19.42,19.42,0,0,1,1.94,2.16C322.12,554.72,322.77,555.8,323.42,556.66Z"/><circle class="cls-2" cx="525.82" cy="410" r="204.88"/></svg>