<svg id="Layer_1" data-name="Layer 1" xmlns="http://www.w3.org/2000/svg" viewBox="0 0 1024 1024"><defs><style>.cls-1{fill:#5d78ff;}.cls-2{fill:#ced6ff;}</style></defs><title>Artboard 1</title><path class="cls-1" d="M813.94,226.24H210.06a43.26,43.26,0,0,0-43.13,43.13V614.44a43.26,43.26,0,0,0,43.13,43.13H813.94a43.26,43.26,0,0,0,43.13-43.13V269.37A43.26,43.26,0,0,0,813.94,226.24ZM400.5,463.47H271.1a21.57,21.57,0,0,1,0-43.13H400.5a21.57,21.57,0,0,1,0,43.13Zm215.67-86.27H271.1a21.57,21.57,0,0,1,0-43.13H616.17a21.57,21.57,0,0,1,0,43.13Z"/><path class="cls-2" d="M479.65,754.63H382.6a21.57,21.57,0,1,0,0,43.13H641.4a21.57,21.57,0,0,0,0-43.13H544.35V657.58h-64.7Z"/></svg>